<svg xmlns="http://www.w3.org/2000/svg" viewBox="0 0 1189.56 503.34"><title>Patricia2</title><path d="M1189.06,386.31s-383.45-670.57-1070.93-180c0,0,152.16,288.38,541.21,287.38C1077.18,492.66,1189.06,386.31,1189.06,386.31Z" style="fill:#fff"/><path d="M1189.56,386.24c-3.61-5.54-7.39-11-11.23-16.33s-7.73-10.7-11.7-16q-11.89-15.81-24.45-31.09t-25.64-30.06q-13.11-14.76-26.75-29T1062,235.89q-14.19-13.65-28.92-26.68-29.38-26.15-61-49.41a759,759,0,0,0-65.23-43.21,668.46,668.46,0,0,0-69.22-35.8A584.79,584.79,0,0,0,689.44,36.55a554.77,554.77,0,0,0-153.83-2.26q-19.14,2.48-38.12,6T459.8,48.66c-12.46,3.26-24.86,6.77-37.14,10.72s-24.47,8.16-36.52,12.79c-48.32,18.29-94.64,41.93-139,68.85s-86.69,57.51-127.28,90.27l1.48-25.47,2.82,2.81,3,2.93c2,1.95,4.12,3.9,6.21,5.84q6.27,5.82,12.74,11.51,12.93,11.39,26.37,22.29c17.89,14.53,36.26,28.56,55.12,41.91s38.12,26.16,57.8,38.29,39.68,23.76,60.07,34.65,41.16,21.09,62.2,30.68,42.41,18.44,64.08,26.51a956,956,0,0,0,133,39.13,898.3,898.3,0,0,0,137.51,18.79c11.57.7,23.16,1.08,34.76,1.3s23.2.19,34.81,0,23.21-.75,34.81-1.41,23.19-1.63,34.76-2.79,23.14-2.5,34.66-4.15,23-3.43,34.53-5.44Q985,462.49,1019,453.87a1085.22,1085.22,0,0,0,133.52-43.63c-84.33,41.38-175.3,70.6-269.15,84.2-11.72,1.73-23.49,3.16-35.29,4.4s-23.62,2.19-35.47,2.89q-35.55,2.2-71.24,1.38a878.68,878.68,0,0,1-141.87-14.79c-93.66-17.6-184.45-49.9-269-93.71q-31.75-16.41-62.39-34.87t-59.93-39c-19.55-13.65-38.7-27.89-57.29-42.9q-13.94-11.26-27.48-23.1c-4.51-4-9-8-13.42-12.05-2.21-2.05-4.42-4.11-6.63-6.21l-3.3-3.18-1.67-1.63-1.76-1.76L83.25,216.58,98.1,204.47a1144.61,1144.61,0,0,1,131.19-92.89c23-13.89,46.55-27,70.8-38.72a800.37,800.37,0,0,1,74.35-31.93C425.09,22.18,478.08,9,532,3.25A568.69,568.69,0,0,1,772.64,29a616.05,616.05,0,0,1,74.85,30.43,691.14,691.14,0,0,1,70.2,39.45,766.49,766.49,0,0,1,65.08,46.91c20.82,16.74,40.77,34.49,59.86,53.05s37.3,38,54.6,58.16q13,15.11,25.34,30.72t24,31.76q11.61,16.14,22.47,32.78C1176.19,363.4,1183.18,374.65,1189.56,386.24Z" style="fill:#010101"/><path d="M118.13,221.49c-.44-.11-.62-.17-.9-.25l-.74-.23-1.41-.46-2.72-.93c-1.78-.63-3.53-1.27-5.27-1.93-3.47-1.31-6.87-2.69-10.25-4.13Q86.72,209.26,77,204.23A223.09,223.09,0,0,1,40.17,180.6a146.18,146.18,0,0,1-16.12-15,106.35,106.35,0,0,1-13.21-17.51,78.75,78.75,0,0,1-8.51-19.86,69.45,69.45,0,0,1-1.95-10.4,72,72,0,0,1-.32-10.36,72.78,72.78,0,0,0,3.05,9.69,66,66,0,0,0,4.43,8.91,63.36,63.36,0,0,0,5.61,8,70.75,70.75,0,0,0,6.56,7.06c9.32,8.8,20.51,15.2,32.22,20.19a195.31,195.31,0,0,0,36.66,11.09c6.27,1.28,12.6,2.32,18.92,3.12,3.16.4,6.32.74,9.45,1,1.56.13,3.12.25,4.65.34l2.26.11,1.09,0h.51c.14,0,.37,0,.35,0Z" style="fill:#010101"/><path d="M163,196.7l-.84-.22-.71-.2-1.37-.41-2.67-.84q-2.62-.84-5.2-1.74c-3.43-1.19-6.8-2.46-10.15-3.77q-10-3.95-19.73-8.62a218.71,218.71,0,0,1-36.82-22.18c-11.41-8.69-22-18.9-29.66-31a77.55,77.55,0,0,1-8.93-19.31,68.87,68.87,0,0,1-2.24-10.22A74.33,74.33,0,0,1,44,87.85a74.27,74.27,0,0,0,2.74,9.77,67.16,67.16,0,0,0,4.14,9.08,71.49,71.49,0,0,0,11.75,15.61c9.11,9.24,20.22,16.14,31.89,21.61a196.44,196.44,0,0,0,36.68,12.53c6.3,1.53,12.66,2.81,19,3.85,3.19.51,6.37,1,9.54,1.36,1.58.2,3.16.37,4.73.53l2.31.2,1.13.09.53,0a2,2,0,0,0,.41,0Z" style="fill:#010101"/><path d="M186.37,176.36c-1.24-.27-1.85-.48-2.71-.71s-1.56-.47-2.31-.72c-1.51-.49-3-1-4.42-1.53-2.91-1-5.72-2.21-8.51-3.4a155.7,155.7,0,0,1-16.13-8.23,136.1,136.1,0,0,1-14.91-10.12,114,114,0,0,1-13.23-12.18c-2.05-2.16-3.93-4.51-5.79-6.81l-2.62-3.61c-.88-1.18-1.62-2.49-2.43-3.72a81.62,81.62,0,0,1-7.72-15.73l-.76-2-.62-2.07c-.39-1.38-.84-2.74-1.18-4.12A84.14,84.14,0,0,1,101.42,93a91.9,91.9,0,0,1-.88-16.6,90.17,90.17,0,0,0,5,15.43c1,2.48,2.31,4.81,3.49,7.14.64,1.15,1.38,2.25,2,3.37l1,1.66,1.15,1.58a70.21,70.21,0,0,0,10.12,11.52c1,.84,1.82,1.74,2.83,2.51l2.93,2.36c2,1.47,4,2.95,6.2,4.24a95.87,95.87,0,0,0,13.23,6.86,114,114,0,0,0,14.08,4.81,127.5,127.5,0,0,0,14.48,3c2.43.33,4.85.64,7.25.82,1.19.1,2.38.18,3.53.23.59,0,1.14,0,1.71.05A6.38,6.38,0,0,0,191,142Z" style="fill:#010101"/><circle cx="763.81" cy="294.2" r="189.66" style="fill:#010101"/><circle cx="763.17" cy="295.91" r="105.42" style="fill:#5e2d8b"/><circle cx="843.03" cy="241.59" r="34.24" style="fill:#fff"/></svg>