<svg xmlns="http://www.w3.org/2000/svg" viewBox="0 0 1203.06 505.18"><defs><style>.cls-1{fill:#fff;}.cls-2{fill:#010101;}.cls-3{fill:#5e2d8b;}</style></defs><title>Patricia2</title><g id="Layer_2" data-name="Layer 2"><g id="lid"><path class="cls-1" d="M1194.43,384.78s-385.37-670.58-1076.3-180c0,0,152.93,288.38,543.93,287.38C1082,491.13,1194.43,384.78,1194.43,384.78Z"/><path class="cls-2" d="M1203.06,393.25c-3.69-5.57-7.57-11-11.48-16.42s-7.89-10.77-12-16.06q-12.13-15.91-24.92-31.3t-26.1-30.26c-8.85-9.95-18-19.64-27.17-29.24-18.54-19.07-37.68-37.52-57.59-55.05s-40.43-34.31-61.72-50S938.87,134.5,916.24,121a686,686,0,0,0-69.85-36.65A610.79,610.79,0,0,0,696.92,38a543.41,543.41,0,0,0-77.69-7.58l-9.75-.32-9.76.11-9.75.09c-1.62,0-3.25,0-4.87.08l-4.88.26c-6.49.37-13,.66-19.47,1.08l-19.42,1.88c-1.62.16-3.24.28-4.85.49l-4.83.68L522,36.14l-9.66,1.33-9.61,1.74L493.11,41c-3.2.6-6.41,1.1-9.58,1.89l-19,4.32c-1.59.38-3.19.67-4.75,1.13L455,49.58l-9.43,2.57-9.43,2.56c-1.58.4-3.12.93-4.68,1.42l-4.66,1.48-18.64,5.92-18.42,6.64c-3.06,1.11-6.14,2.19-9.2,3.33l-9.07,3.7-18.15,7.39L335.47,92.7l-8.93,4c-3,1.41-5.86,2.92-8.79,4.37l-17.56,8.79c-2.95,1.41-5.78,3.08-8.67,4.63l-8.62,4.72-8.64,4.7c-2.88,1.56-5.77,3.11-8.56,4.82l-16.94,10c-45,27-87.87,57.81-128.91,90.93l3.74-22.6,1,1.5,1.14,1.69,2.4,3.44c1.64,2.3,3.34,4.6,5.06,6.9,3.46,4.58,7.05,9.11,10.72,13.6,7.36,9,15.11,17.68,23.11,26.18a616.78,616.78,0,0,0,50.94,48.28c2.21,1.92,4.48,3.78,6.75,5.63s4.52,3.74,6.82,5.56c4.62,3.62,9.18,7.31,13.89,10.8l7,5.3,7.13,5.15,3.57,2.58,3.62,2.51,7.24,5a693.21,693.21,0,0,0,60.21,36.66,746.88,746.88,0,0,0,130,55q33.75,10.71,68.46,18.3l8.66,1.93,8.7,1.72,8.71,1.71c1.46.28,2.9.59,4.36.84l4.38.74,17.52,3,17.59,2.51,4.4.64,4.41.53,8.84,1,8.83,1c2.95.37,5.91.57,8.86.86l17.73,1.59,17.78,1.14c5.93.46,11.87.6,17.81.84l8.91.36,4.45.18,4.46.07,17.85.26c1.48,0,3,.06,4.46.05l4.46-.05,8.93-.1,8.93-.1c1.49,0,3,0,4.47-.07l4.46-.16,17.87-.66,4.46-.17,4.47-.26,8.92-.54,8.93-.53c3-.18,6-.34,8.93-.62l17.84-1.52c3-.27,6-.47,8.92-.79l8.9-1,17.82-1.95c5.93-.72,11.85-1.55,17.78-2.32,47.41-6.34,94.55-15.25,141.27-26.24s93-24.15,138.93-38.68c-89.35,35.9-182.26,64-277.68,81.06-47.68,8.51-96,14.39-144.58,16.5a945.15,945.15,0,0,1-146-4.13l-18.2-2.13L563,495.17l-4.54-.66c-1.51-.22-3-.5-4.52-.76l-9-1.55-9-1.55-9-1.79c-12-2.27-23.95-5-35.88-7.82l-17.81-4.57c-5.91-1.61-11.79-3.35-17.69-5Q420.23,461,386,447.32A727.33,727.33,0,0,1,319,416.4a717.25,717.25,0,0,1-63.57-37.55l-7.64-5.2-3.82-2.6-3.77-2.67L232.7,363l-7.44-5.5c-5-3.63-9.8-7.47-14.69-11.23-2.43-1.9-4.81-3.86-7.22-5.79s-4.8-3.87-7.15-5.87l-7.09-5.95-7-6.09c-2.34-2-4.61-4.11-6.9-6.17s-4.59-4.14-6.83-6.27Q154.82,297.54,142,284c-8.51-9-16.78-18.26-24.72-27.87q-5.94-7.22-11.66-14.72-2.84-3.76-5.63-7.64c-.93-1.3-1.85-2.6-2.77-3.95l-1.39-2-1.5-2.28L86,212.8l12.1-9.86a1117.76,1117.76,0,0,1,133-93.64L248.63,99c2.9-1.76,5.91-3.36,8.9-5l9-4.86,9-4.85c3-1.58,6-3.28,9.05-4.73l18.35-9c3.06-1.49,6.1-3,9.19-4.47l9.35-4.15,18.7-8.3,19-7.58,9.51-3.78c3.21-1.18,6.45-2.28,9.67-3.42L397.7,32l19.64-6,4.91-1.48c1.64-.49,3.27-1,4.93-1.42l9.95-2.57L447.07,18l5-1.28c1.65-.45,3.35-.74,5-1.12l20.1-4.28c3.34-.77,6.74-1.26,10.11-1.85l10.14-1.7,10.14-1.69,10.21-1.28L528,3.59,533.06,3c1.7-.19,3.41-.29,5.12-.43L558.69,1C565.54.63,572.4.45,579.25.2L584.39,0c1.71,0,3.43,0,5.15,0l10.28.09L610.1.21l10.28.52a547.25,547.25,0,0,1,81.54,9.8C755.68,21,807.68,39.11,856.47,63.11a706.71,706.71,0,0,1,70.73,40.26A802.4,802.4,0,0,1,992.89,151c21.05,16.92,41.2,34.89,60.54,53.62s37.79,38.34,55.41,58.61,34.37,41.28,50.17,62.93q11.84,16.26,23,33C1189.34,370.28,1196.5,381.6,1203.06,393.25Z"/></g><g id="lashes"><path class="cls-2" d="M118.13,220c-.44-.11-.62-.17-.9-.26l-.74-.23-1.41-.46-2.72-.92c-1.78-.63-3.53-1.27-5.27-1.93-3.47-1.32-6.87-2.7-10.25-4.13Q86.72,207.73,77,202.69a221.8,221.8,0,0,1-36.84-23.63,146.09,146.09,0,0,1-16.12-14.95A106.35,106.35,0,0,1,10.84,146.6a78.9,78.9,0,0,1-8.51-19.86,69.69,69.69,0,0,1-1.95-10.4A72.15,72.15,0,0,1,.06,106a71.87,71.87,0,0,0,3.05,9.69,64.85,64.85,0,0,0,4.43,8.91,62.64,62.64,0,0,0,5.61,8,70.75,70.75,0,0,0,6.56,7.06c9.32,8.81,20.51,15.21,32.22,20.19a194.57,194.57,0,0,0,36.66,11.09c6.27,1.29,12.6,2.33,18.92,3.13,3.16.39,6.32.74,9.45,1,1.56.14,3.12.25,4.65.34l2.26.12,1.09,0h.51c.14,0,.37,0,.35,0Z"/><path class="cls-2" d="M163,195.17l-.84-.22-.71-.21-1.37-.41-2.67-.83q-2.62-.85-5.2-1.75c-3.43-1.19-6.8-2.45-10.15-3.76q-10-3.94-19.73-8.62a218.11,218.11,0,0,1-36.82-22.19c-11.41-8.69-22-18.9-29.66-31a77.71,77.71,0,0,1-8.93-19.31A69,69,0,0,1,44.68,96.6,74.29,74.29,0,0,1,44,86.32a73.7,73.7,0,0,0,2.74,9.76,66.05,66.05,0,0,0,4.14,9.08,71.55,71.55,0,0,0,11.75,15.62c9.11,9.24,20.22,16.13,31.89,21.6a197.2,197.2,0,0,0,36.68,12.54c6.3,1.53,12.66,2.8,19,3.84q4.78.78,9.54,1.37c1.58.19,3.16.37,4.73.52l2.31.21L168,161l.53,0c.16,0,.38,0,.41,0Z"/><path class="cls-2" d="M186.37,174.82c-1.24-.26-1.85-.47-2.71-.71s-1.56-.46-2.31-.71c-1.51-.49-3-1-4.42-1.53-2.91-1.05-5.72-2.21-8.51-3.41a153.75,153.75,0,0,1-16.13-8.23,137.45,137.45,0,0,1-14.91-10.11,114,114,0,0,1-13.23-12.18c-2.05-2.16-3.93-4.51-5.79-6.82l-2.62-3.61c-.88-1.18-1.62-2.48-2.43-3.71a81.9,81.9,0,0,1-7.72-15.73l-.76-2-.62-2.07c-.39-1.39-.84-2.74-1.18-4.13a84,84,0,0,1-1.61-8.34,92,92,0,0,1-.88-16.6,90.75,90.75,0,0,0,5,15.43c1,2.48,2.31,4.8,3.49,7.14.64,1.15,1.38,2.25,2,3.36l1,1.66,1.15,1.59a70.21,70.21,0,0,0,10.12,11.52c1,.83,1.82,1.73,2.83,2.51l2.93,2.36c2,1.47,4,2.94,6.2,4.24a95.87,95.87,0,0,0,13.23,6.86,113.93,113.93,0,0,0,14.08,4.8,125.4,125.4,0,0,0,14.48,3c2.43.33,4.85.64,7.25.82,1.19.09,2.38.18,3.53.22.59,0,1.14,0,1.71.05a7.46,7.46,0,0,0,1.31-.05Z"/></g><g id="pupil"><g id="Layer_11" data-name="Layer 11"><circle class="cls-2" cx="763.81" cy="292.66" r="189.66"/></g><circle class="cls-3" cx="763.17" cy="294.38" r="105.42"/><g id="Layer_5" data-name="Layer 5"><circle class="cls-1" cx="843.03" cy="240.06" r="34.24"/></g></g></g></svg>