<svg xmlns="http://www.w3.org/2000/svg" viewBox="0 0 43.43 85.74"><defs><style>.cls-1{fill:#000031;}</style></defs><title>Alice</title><g id="Layer_2" data-name="Layer 2"><g id="styles"><path class="cls-1" d="M33.14,45.56V8.27l-.06-.51C32.52,5.14,29.53.16,22.26,0A12.16,12.16,0,0,0,10.44,7.65l-.15.4V45.48A21.74,21.74,0,1,0,43.43,64,21.65,21.65,0,0,0,33.14,45.56ZM22.07,80.66c-8.65,0-16.79-8-16.79-16.63,0-6.42,4.64-12.82,9.88-15.24,0,0,0-5.55,0-5.54V9A7.25,7.25,0,0,1,22,4.83h.21c4.62.1,5.88,3,6.15,3.76V43.43h0v5.66c5.18,2.2,9.93,8.59,9.93,15C38.24,72.76,30.72,80.66,22.07,80.66Z"/><path class="cls-1" d="M24.38,54.39V31.08c0-1.93-.88-3.49-2-3.49H21c-1.09,0-2,1.56-2,3.49V54.39a10.45,10.45,0,1,0,5.33,0Z"/></g></g></svg>