<svg xmlns="http://www.w3.org/2000/svg" viewBox="0 0 107.25 85.51"><defs><style>.cls-1{fill:#000031;}</style></defs><title>Annie</title><g id="Layer_2" data-name="Layer 2"><g id="styles"><path class="cls-1" d="M106.28,67.87C92.79,70.12,90.2,60.17,87.2,39.2a.34.34,0,0,1,0-.1C86.74-8.57,56.85.26,53.74,1.31a.92.92,0,0,1-.52,0c-3.1-1-33-9.88-33.44,37.79,0,0,0,.07,0,.1C16.79,60.05,14.2,70,.92,67.91a.81.81,0,0,0-.69,1.37c4,4.07,15.93,13.79,41.62,16.16,3-1.72,2.93-9.55,2.39-15.75C34,65.25,26.61,53.62,26.61,40c0-17.48,12-31.65,26.87-31.65S80.36,22.48,80.36,40c0,13.53-7.2,25.07-17.35,29.6-.55,6.31-.6,14.36,2.5,16,27.16-2.29,38.15-12.28,41.54-16.33A.81.81,0,0,0,106.28,67.87Z"/></g></g></svg>