<svg xmlns="http://www.w3.org/2000/svg" viewBox="0 0 65.41 86.39"><defs><style>.cls-1{fill:#000031;}</style></defs><title>Marie</title><g id="Layer_2" data-name="Layer 2"><g id="styles"><path class="cls-1" d="M62.89,40.55h-9.8V15.84A11.74,11.74,0,0,0,50.87,8.9C48.45,5.58,42.78,0,31.93,0c-10,0-15.28,4.39-18,8.07a11.79,11.79,0,0,0-2.26,7V40.55H2.52A2.52,2.52,0,0,0,0,43.08V83.87a2.52,2.52,0,0,0,2.52,2.52H62.89a2.52,2.52,0,0,0,2.52-2.52V43.08A2.52,2.52,0,0,0,62.89,40.55ZM16.58,15.06a7,7,0,0,1,1.32-4.13c2-2.76,6.09-6.06,14-6.06,8.26,0,12.72,3.75,15,6.89a6.88,6.88,0,0,1,1.29,4.08V40.55H16.58ZM36,63l1.85,11.5a1.74,1.74,0,0,1-1.72,2H28.63a1.74,1.74,0,0,1-1.72-2L28.76,63h.49a6.84,6.84,0,1,1,6.31,0Z"/></g></g></svg>