<svg xmlns="http://www.w3.org/2000/svg" viewBox="0 0 102.15 81.88"><defs><style>.cls-1{fill:#000031;}</style></defs><title>Marian</title><g id="Layer_2" data-name="Layer 2"><g id="styles"><path class="cls-1" d="M26,54.91a3.5,3.5,0,0,1-2.79-5.6c.39-.52,9.74-12.8,24.88-14,10.34-.78,20.63,3.77,30.58,13.55a3.5,3.5,0,1,1-4.9,5c-8.45-8.3-16.91-12.2-25.15-11.56-12,.91-19.73,11.06-19.81,11.16A3.5,3.5,0,0,1,26,54.91Z"/><path class="cls-1" d="M14.56,40.61A3.5,3.5,0,0,1,12,34.78c.59-.66,14.74-16.31,36.33-17.45,14.31-.74,28.32,5,41.66,17.19a3.5,3.5,0,0,1-4.71,5.18C73.32,28.85,61,23.67,48.65,24.32c-18.71,1-31.35,15-31.47,15.11A3.49,3.49,0,0,1,14.56,40.61Z"/><path class="cls-1" d="M98.65,26.48a3.52,3.52,0,0,1-2.24-.8C75.53,8.35,54,3,32.56,9.76A69.6,69.6,0,0,0,6,25.41a3.5,3.5,0,0,1-5-4.85A75.21,75.21,0,0,1,30.16,3.18c16.5-5.27,42.16-6.59,70.72,17.11a3.5,3.5,0,0,1-2.23,6.19Z"/><circle class="cls-1" cx="51.07" cy="70.13" r="11.74"/></g></g></svg>