<svg xmlns="http://www.w3.org/2000/svg" viewBox="0 0 115.4 85.32"><defs><style>.cls-1{fill:#000031;}</style></defs><title>Sarah</title><g id="Layer_2" data-name="Layer 2"><g id="styles"><path class="cls-1" d="M115.4,2.52A2.52,2.52,0,0,0,112.88,0H2.52A2.52,2.52,0,0,0,0,2.52V32.39a2.52,2.52,0,0,0,2.52,2.52H22.43A2.52,2.52,0,0,1,25,37.43V82.8a2.52,2.52,0,0,0,2.52,2.52h6.4a2.52,2.52,0,0,0,2.52-2.52V37.43a2.52,2.52,0,0,1,2.52-2.52H76a2.52,2.52,0,0,1,2.53,2.52V82.8A2.52,2.52,0,0,0,81,85.32h6.39a2.52,2.52,0,0,0,2.52-2.52V37.43a2.52,2.52,0,0,1,2.52-2.52h20.43a2.52,2.52,0,0,0,2.52-2.52Z"/></g></g></svg>