<svg xmlns="http://www.w3.org/2000/svg" viewBox="0 0 1323.81 1323.81"><defs><style>.cls-1{isolation:isolate;}.cls-2{fill:#dc2361;}.cls-3{fill:#bce3e0;}.cls-4,.cls-5{fill:#010101;}.cls-5{opacity:0.5;mix-blend-mode:multiply;}.cls-6{fill:#28998f;}</style></defs><title>Sarah 2</title><g class="cls-1"><g id="bed"><g id="bed-2" data-name="bed"><path class="cls-2" d="M363.71,643.44l4.08-299.24-76-1.2C91,353.45,147.65,516.69,147.65,516.69L27.28,521.05V702H1296V643.44Z"/><path class="cls-3" d="M550.46,641.93c19.78-4.32,25.75-29.63,10-42.41C499.29,549.68,354,439.83,361.45,526.38,369.06,614.67,484.68,656.32,550.46,641.93Z"/><rect class="cls-2" x="524.45" y="672.7" width="449.34" height="406.86"/><path class="cls-4" d="M749.12,723.36l.42,32.25.31,32.26.6,64.5.78,129-2.11-2.12,112.33-.35,112.33-.08v5.09l-112.33-.16c-37.44-.12-74.89-.19-112.33-.46l-112.34-.71L580.61,982l-28.08-.28-28.08-.37,28.08-.38,28.08-.28,56.17-.56,112.34-.71c37.44-.27,74.89-.34,112.33-.46l112.33-.16v5.09l-112.33-.08-112.33-.35H747v-2.1l.78-129,.6-64.5.32-32.26Z"/><path class="cls-5" d="M580.81,643.44S545.38,809.57,574.33,831s112-16.36,123.35,22.66S705.23,1000.88,928,865c71.74,0,39.46-26.44,175.17,79.29s125.65-65.45,118.09-119.57,3.83-172.44,3.83-172.44S671.43,605.68,580.81,643.44Z"/><path class="cls-6" d="M593.67,635.26s-28.95,157.33,0,178.72,112-16.36,123.35,22.66c11,38,7.73,141.79,213.74,21.25a78.48,78.48,0,0,1,34.5-10.5c49.21-3.26,34.48-15.78,157.27,79.87,135.71,105.73,125.64-65.45,118.09-119.57s3.82-172.43,3.82-172.43S684.3,597.5,593.67,635.26Z"/></g></g></g></svg>