<svg id="couch" xmlns="http://www.w3.org/2000/svg" viewBox="0 0 1323.81 1323.81"><defs><style>.cls-1{fill:#ee2556;}.cls-2{fill:#8c1733;}.cls-3{fill:#9a1b42;}.cls-4{fill:#dc2361;}.cls-5{fill:#010101;}.cls-6{fill:#c01f46;}</style></defs><title>Sarah 2</title><g id="desk"><path class="cls-1" d="M98.21,218.21,73.16,1069l498.07,89.19,619.34-180.39,16-330.71s81.17-275.59-129.28-251.54l-1-177.38L871.88,164.09Z"/><path class="cls-2" d="M595.24,577.19,962.08,538.9l245.53,107.23L618.34,748.35S614.29,628.3,595.24,577.19Z"/><path class="cls-3" d="M1077.33,395.59,974.1,538.9,587.27,593S540.44,466.89,428.93,456.72Z"/><path class="cls-4" d="M97.21,217.2,367.8,271.32l-10,190.41s272.59-68.15,260.57,258.56l-46.1,439L73.16,1069Z"/><polygon class="cls-2" points="367.8 271.32 1077.33 217.2 872.88 165.09 112.54 217.2 367.8 271.32"/><path class="cls-2" d="M432.21,456.41,1080,395.54,870.88,345.48l-507,39.08-6.07,77.17C387,453.87,409,454,432.21,456.41Z"/><path class="cls-5" d="M899.49,699.76c.53,19.29.46,38.57.19,57.83s-.75,38.52-1.47,57.77-1.65,38.49-2.8,57.72-2.52,38.46-4.49,57.66c-.53-19.29-.47-38.56-.2-57.83s.75-38.52,1.48-57.77,1.66-38.49,2.81-57.72S897.53,719,899.49,699.76Z"/><polygon class="cls-5" points="1197.81 848.25 1160.05 858.71 1122.26 869.06 1046.67 889.72 971.03 910.2 895.36 930.55 743.94 970.93 592.42 1010.94 591.82 1011.1 591.21 1011 461.62 990.95 396.84 980.84 332.07 970.61 267.32 960.31 202.58 949.91 137.86 939.38 105.5 934.11 73.16 928.74 105.63 933.29 138.08 937.93 202.99 947.24 267.88 956.67 332.75 966.21 397.61 975.82 462.45 985.54 592.11 1005.16 590.91 1005.22 742.46 965.32 894.11 925.79 969.97 906.18 1045.87 886.7 1121.82 867.41 1159.8 857.77 1197.81 848.25"/><path class="cls-5" d="M345.75,710.89c-1.89,21.33-4.37,42.58-7.05,63.8-1.29,10.61-2.79,21.2-4.19,31.8L330,838.24,325.16,870c-1.73,10.55-3.34,21.12-5.18,31.65-3.56,21.09-7.32,42.15-11.68,63.12,1.88-21.34,4.35-42.58,7-63.8,1.28-10.62,2.79-21.2,4.19-31.8l4.52-31.75,4.85-31.71c1.72-10.55,3.34-21.12,5.17-31.65C337.63,752.92,341.4,731.86,345.75,710.89Z"/><polygon class="cls-6" points="869.2 345.29 869.2 233.08 1077.65 217.01 1077.65 395.4 869.2 345.29"/><polygon class="cls-1" points="1078.33 394.59 974.08 405.1 968.09 538.9 1038.84 572.42 1078.33 394.59"/><path class="cls-5" d="M84.29,675c44.67,4.88,89.26,10.35,133.83,16,22.29,2.78,44.55,5.78,66.82,8.68l66.78,9L418.46,718c22.22,3.22,44.47,6.33,66.68,9.67,44.45,6.55,88.86,13.31,133.2,20.67-44.68-4.88-89.27-10.34-133.84-16-22.29-2.78-44.54-5.79-66.82-8.68l-66.78-9-66.73-9.34c-22.23-3.22-44.47-6.34-66.69-9.67C173,689.07,128.62,682.31,84.29,675Z"/></g></svg>