<svg xmlns="http://www.w3.org/2000/svg" viewBox="0 0 1028.63 1784.68"><defs><style>.cls-1,.cls-5,.cls-9{fill:#010101;}.cls-2{fill:#f4f4f4;}.cls-3{fill:#fff;}.cls-10,.cls-4{fill:none;stroke:#010101;stroke-miterlimit:10;}.cls-4{stroke-width:3.84px;}.cls-5{font-size:37.96px;}.cls-5,.cls-9{font-family:Roboto-Bold, Roboto;font-weight:700;}.cls-6{letter-spacing:-0.06em;}.cls-7{letter-spacing:-0.03em;}.cls-8{fill:#6ac8c5;}.cls-9{font-size:44.48px;}.cls-10{stroke-width:3.21px;}</style></defs><title>bg</title><g id="Layer_2" data-name="Layer 2"><g id="phone"><rect class="cls-1" width="1028.63" height="1784.68" rx="31.4"/><path class="cls-2" d="M1000.24,99.25V1685.41a67,67,0,0,1-2.9,19.53H31.3a66.64,66.64,0,0,1-2.9-19.53V99.25Z"/><rect class="cls-3" x="28.4" y="99.25" width="971.84" height="51.03"/><rect class="cls-4" x="901.98" y="109.31" width="63.8" height="30.92"/><rect class="cls-1" x="965.79" y="118.63" width="12.27" height="12.27"/><polygon class="cls-1" points="939.93 134.93 908.31 134.93 908.31 114.6 924.12 114.6 939.93 134.93"/><text class="cls-5" transform="translate(639.65 141.49)">3:30 PM</text><rect class="cls-1" x="859.04" y="107.9" width="10.97" height="33.7"/><rect class="cls-1" x="843.91" y="117.3" width="10.97" height="24.29"/><rect class="cls-1" x="828.78" y="127.49" width="10.97" height="14.1"/><rect class="cls-1" x="813.65" y="135.52" width="10.97" height="6.07"/><text class="cls-5" transform="translate(55.04 142.53)"><tspan class="cls-6">A</tspan><tspan x="23.31" y="0">T&amp;</tspan><tspan class="cls-7" x="71.71" y="0">T</tspan></text><rect class="cls-8" x="28.39" y="150.28" width="971.84" height="103.48"/><text class="cls-9" transform="translate(463.28 214.46)">2888</text><rect class="cls-8" x="28.4" y="1577.3" width="971.84" height="127.64"/><rect class="cls-3" x="136.24" y="1604.02" width="707.38" height="69.22" rx="15.57"/><path class="cls-10" d="M87.57,1638.91S60.66,1652,64.76,1661s44-16.61,41.82-30.34c-2-12.36-6.71-12-11.63-10.6-6.32,1.76-35.19,24.12-36.75,27"/></g></g></svg>