<svg xmlns="http://www.w3.org/2000/svg" viewBox="0 0 515.94 97.89"><defs><style>.cls-1{fill:#6ac8c5;}.cls-2{font-size:37.96px;fill:#010101;font-family:Roboto-Medium, Roboto;font-weight:500;}.cls-3{letter-spacing:-0.04em;}.cls-4{letter-spacing:-0.03em;}.cls-5{letter-spacing:-0.01em;}</style></defs><title>text1</title><g id="Layer_2" data-name="Layer 2"><g id="text"><path class="cls-1" d="M77.88,6.76V49.54a6.76,6.76,0,0,1-4.32,6.3L0,84.37H71.12a6.76,6.76,0,0,1,6.76,6.76h0a6.76,6.76,0,0,0,6.76,6.76H509.18a6.76,6.76,0,0,0,6.76-6.76V6.76A6.76,6.76,0,0,0,509.18,0H84.64A6.76,6.76,0,0,0,77.88,6.76Z"/><text class="cls-2" transform="translate(118.87 63.81)"><tspan class="cls-3">T</tspan><tspan x="21.39" y="0">ext “</tspan><tspan class="cls-4" x="97.52" y="0">Y</tspan><tspan x="119.45" y="0">es” </tspan><tspan class="cls-5" x="183.59" y="0">t</tspan><tspan x="195.66" y="0">o donate.</tspan></text></g></g></svg>