<svg xmlns="http://www.w3.org/2000/svg" width="65.633" height="66.88" viewBox="0 0 65.633 66.88"><defs><style>.a{fill:#f31e55;}</style></defs><g transform="translate(728.88 -1541.469)"><path class="a" d="M-650.246,1627.663l13.275-8.294v3.316l-13.275,8.3-13.275-8.3v-3.316Z" transform="translate(-45.818 -54.609)"/><path class="a" d="M-689.767,1541.469H-702.36a26.519,26.519,0,0,0-26.52,26.52v13.843a26.518,26.518,0,0,0,26.52,26.517h12.594a26.518,26.518,0,0,0,26.52-26.517v-13.843A26.519,26.519,0,0,0-689.767,1541.469Zm10.3,43.2a3.33,3.33,0,0,1-3.319,3.319h-26.55a3.33,3.33,0,0,1-3.319-3.319l.018-19.909a3.311,3.311,0,0,1,3.3-3.319h26.55a3.327,3.327,0,0,1,3.319,3.319Z"/></g></svg>