<svg xmlns="http://www.w3.org/2000/svg" width="65.63" height="66.88" viewBox="0 0 65.63 66.88"><defs><style>.a{fill:#f31e55;}</style></defs><g transform="translate(728.88 -1500.099)"><path class="a" d="M-689.768,1500.1h-12.593a26.517,26.517,0,0,0-26.519,26.519v13.842a26.517,26.517,0,0,0,26.519,26.519h12.593a26.517,26.517,0,0,0,26.519-26.519v-13.842A26.517,26.517,0,0,0-689.768,1500.1Zm2.707,21.942h-2.687c-2.647,0-3.472,1.643-3.472,3.328v3.994h5.909l-.944,6.157h-4.966V1550.4h-6.656v-14.884h-5.407v-6.157h5.409v-4.693c0-5.337,3.177-8.286,8.044-8.286a32.838,32.838,0,0,1,4.769.416Z" transform="translate(0 0)"/></g></svg>