<svg xmlns="http://www.w3.org/2000/svg" viewBox="0 0 83.32 84.99"><defs><style>.cls-1{fill:#27988f;}</style></defs><title>gear</title><g id="Layer_2" data-name="Layer 2"><g id="styles"><path class="cls-1" d="M35.94,6.31V5.06c0-5.9-1-4.94,5.41-5.06,1.48,0,2,.6,2.14,2.06a67.87,67.87,0,0,1,.38,8.43c0,1.22.23,1.46,1.62,1.9,3,1,3.59-.58,4.31-2.69C50.45,7.82,51.27,6,52,4.14s1.73-2.41,3.64-1.53c4.35,2,4.66,2.64,2.83,7.12a35.83,35.83,0,0,1-1.68,4.14c-1,1.77-.51,2.65,1.12,3.69s2.35,1,3.55-.31a66.68,66.68,0,0,1,4.78-4.73c1.77-1.65,3-1.52,4.56.38,3.09,3.76,3.08,3.75-.66,7.1-1,.94-2,2.06-3,2.92-1.55,1.21-1.6,2.22-.45,3.88,1,1.4,1.5,2.17,3.36,1.25,2.06-1,4.42-1.42,6.58-2.26s3.16-.1,3.72,1.89a16,16,0,0,0,.61,1.89c1,2.18.27,3.43-2,4.07s-4.37,1.61-6.62,2.13c-1.57.35-1.75,1.33-1.29,2.31.52,1.13-.62,3.26,2,3.31s5.11.38,7.67.58c2.06.16,3,1.2,2.68,3.29a29.65,29.65,0,0,0-.5,3.42c-.06,1.6-1.38,1.68-2.57,1.56-2.55-.26-5.11-.53-7.63-.94-1.18-.19-1.58,0-2,1.25-.74,2.33-.82,3.87,2,4.83a26.8,26.8,0,0,1,5.59,3.22c2.11,1.35,2.06,2.3.08,5.73-1,1.73-2.11,2.4-4,1.18-2.23-1.43-4.64-2.58-6.83-4.08-1.19-.81-1.67-.26-2.08.6-.5,1.07-2.83,1.39-1.28,3.35,1.71,2.13,3.2,4.44,4.89,6.59,1.49,1.88,1.1,3.31-.76,4.56A9.8,9.8,0,0,0,67,77.4c-1.62,1.48-3,1.09-4.18-.54-1.58-2.14-3.32-4.17-4.7-6.42-1.07-1.75-2-.55-2.83-.1s-2.55.42-1.87,2.45c.84,2.5,1.32,5.12,1.93,7.7.51,2.2-.3,3.36-2.63,3.8-3.71.71-4.26.63-5-2.05-.67-2.48-1.29-5-1.76-7.49s-2.48-1.1-3.76-1.43-1.65.38-1.77,1.66c-.23,2.54-.67,5.08-1.1,7.6-.33,2-1.27,2.77-3.45,2.26-4.72-1.1-4.74-1-4-5.67.23-1.46.38-2.94.64-4.39.52-2.87-.27-4-3-4.75-1-.27-1.08.44-1.42.94l-4.48,6.57c-1.09,1.6-2.05,2-4,.73-4.71-3.18-3.75-3.56-1.11-7.58a25.55,25.55,0,0,1,2.29-3.24c1.39-1.56,1.26-2.67-.31-4.12-1.24-1.13-2-1.56-3.49-.42-1.9,1.45-4.08,2.52-6.13,3.79-1.47.91-2.52.75-3.5-.83-3-4.8-3-4.78,1.73-7.7l2.77-1.67c2.76-1.66,3-2.91,1.3-5.75-.57-1-1.12-.35-1.66-.3-2.71.27-5.42.61-8.13.88-1.73.18-2.8-.64-2.73-2.39.07-1.55-1.25-3-.21-4.58s3-.6,4.38-1.14c1.75-.67,3.59-.21,5.39-.7,2.55-.69.87-2.82,1.66-4.13.65-1.06-.89-1.1-1.55-1.34-2.49-.9-5-1.75-7.54-2.53C1.07,34,.46,33,1,31.33c.28-.86.45-1.77.72-2.63.56-1.8,1.55-2.59,3.55-1.79,2.3.92,4.69,1.64,7.06,2.4.79.26,1.87,1,2.18-.5s2.55-2.38.56-4.09S11.06,21,9,19.25c-1.61-1.35-1.9-2.61-.32-4.15.59-.57,1-1.28,1.6-1.9,1.13-1.28,2.24-1.49,3.58-.16,1.88,1.86,3.93,3.56,5.85,5.39.8.76,1.51,1.41,2.4.23.77-1,3.1-1.05,1.92-3.3s-2.1-4.51-3.16-6.76c-1.39-3-1.28-3.36,1.6-4.77.45-.22.9-.44,1.33-.68,1.76-1,3-.47,3.83,1.31C28.75,7,29.93,9.58,31,12.2c.37,1,.75,1,1.63.82C36,12.33,36,12.37,36,8.8c0-.83,0-1.66,0-2.49ZM58.37,42.48c1-8.32-7.12-17.37-17-17.14-8.78.2-17.14,7.48-16.82,17.57A17,17,0,0,0,41.65,59.37,16.48,16.48,0,0,0,58.37,42.48Z"/></g></g></svg>