<svg xmlns="http://www.w3.org/2000/svg" viewBox="0 0 45.85 85.4"><defs><style>.cls-1{fill:#ffff7b;}</style></defs><title>lightning</title><g id="Layer_2" data-name="Layer 2"><g id="styles"><path class="cls-1" d="M45.84,37c-3.08,4.32-5.93,8.78-9.3,12.93-3,3.73-5.53,7.89-8.44,11.75-4.73,6.28-9.28,12.69-13.92,19a35.24,35.24,0,0,1-3.85,4.64C13,79.58,15.59,73.76,18.25,68c2.76-6,5.56-12.06,8.33-18.1.24-.52.94-1,.4-1.64s-1.16-.08-1.74,0q-10.45,2.19-20.9,4.42A10.55,10.55,0,0,1,0,53.09C10.46,35.31,20.39,17.42,31.14,0l.78.46C29.34,7.23,26.72,14,24.19,20.78c-2.35,6.3-4.62,12.64-7,19.34,5.46-.67,10.72-1.3,16-2,3.48-.43,7-.94,10.44-1.37a3,3,0,0,1,2.29.28Z"/></g></g></svg>