<svg xmlns="http://www.w3.org/2000/svg" width="65.24" height="66.479" viewBox="0 0 65.24 66.479"><defs><style>.a{fill:#f31e55;}</style></defs><g transform="translate(734.88 -1540.539)"><path class="a" d="M-696,1540.539H-708.52a26.358,26.358,0,0,0-26.36,26.36v13.759a26.36,26.36,0,0,0,26.36,26.36H-696a26.362,26.362,0,0,0,26.363-26.36V1566.9A26.36,26.36,0,0,0-696,1540.539Zm8.1,25.841v0c.021.319.021.638.021.96,0,9.756-7.426,21-21,21a20.856,20.856,0,0,1-11.335-3.311,15.906,15.906,0,0,0,1.783.091,14.776,14.776,0,0,0,9.16-3.153,7.4,7.4,0,0,1-6.9-5.124,9.331,9.331,0,0,0,1.394.112,7.776,7.776,0,0,0,1.944-.249,7.388,7.388,0,0,1-5.917-7.241v-.094a7.452,7.452,0,0,0,3.338.939,7.4,7.4,0,0,1-2.29-9.874,20.989,20.989,0,0,0,15.219,7.727,8.358,8.358,0,0,1-.182-1.692,7.388,7.388,0,0,1,7.4-7.384,7.394,7.394,0,0,1,5.379,2.333,14.544,14.544,0,0,0,4.686-1.783,7.369,7.369,0,0,1-3.247,4.067,14.752,14.752,0,0,0,4.252-1.142A15.893,15.893,0,0,1-687.906,1566.38Z"/></g></svg>